/* XPM */
static char *result[] = {
/* columns rows colors chars-per-pixel */
"32 32 81 1 ",
"  c #1B130C",
". c #1C140D",
"X c #1D140D",
"o c #2E2016",
"O c #342417",
"+ c #3A2616",
"@ c #362618",
"# c #372718",
"$ c #382618",
"% c #3C291A",
"& c #3F2B1B",
"* c #412B19",
"= c #422B19",
"- c #412B1A",
"; c #422C19",
": c #422C1A",
"> c #442E1B",
", c #422D1D",
"< c #422E1D",
"1 c #442E1C",
"2 c #452F1D",
"3 c #452F1E",
"4 c #462F1E",
"5 c #45301E",
"6 c #46301E",
"7 c #47301E",
"8 c #47311E",
"9 c #47311F",
"0 c #49321F",
"q c #4C3421",
"w c #4D3521",
"e c #4E3521",
"r c #4F3A29",
"t c #553921",
"y c #523925",
"u c #543A24",
"i c #553A24",
"p c #563B25",
"a c #573C25",
"s c #593D26",
"d c #503F32",
"f c #5F4025",
"g c #5F4128",
"h c #5C422D",
"j c #5F442D",
"k c #554233",
"l c #514134",
"z c #584434",
"x c #594536",
"c c #604229",
"v c #68472C",
"b c #6B4A2E",
"n c #644933",
"m c #714E30",
"M c #724E30",
"N c #734F31",
"B c #735031",
"V c #745031",
"C c #645243",
"Z c #645549",
"A c #76685C",
"S c #8B8076",
"D c #91857B",
"F c #918982",
"G c #928A85",
"H c #938D87",
"J c #9D8E87",
"K c #A29890",
"L c #A79E97",
"P c #A89E96",
"I c #A99F99",
"U c #AFA29D",
"Y c #F6ADB5",
"T c #F7AEB6",
"R c #C5C5C1",
"E c #D0CAC8",
"W c #D7CAC8",
"Q c #D8CBCA",
"! c #E9E7E8",
"~ c #ECF1F1",
"^ c None",
/* pixels */
"^^^^^^^^^^^^^^^^^^^^^^^^^^^^^^^^",
"^^^^^^^^^^^^^^^^^^^^^^^^^^^^^^^^",
"^^^^^^^^^^^^^^^^^^^^^^^^^^^^^^^^",
"^^^^^^^^^^^^^^^^^^^^^^^^^^^^^^^^",
"^^^^^^^^^^^^^^^^^^^^^^^^^^^^^^^^",
"^^^^^^^^^^^^^^^^^^^^^^^^^^^^^^^^",
"^^^^^^^^^^^^^^^^^^^^^^^^^^^^^^^^",
"^^^^^^^^^^^^^^^^^^^^^^^^^^^^^^^^",
"^^^^^^^^^^^^^^^^^^^^^^^^^^^^^^^^",
"^^^^^^^^^VNNMft*=>^^^^^^^^^^^^^^",
"^^^^^^^2pVNmnKLPIC1^^^^^^^^^^^^^",
"^^^^^^wguBcyJ!~YTRx>^^^^^^^^^^^^",
"^^^^^6qbesvizUEWQDr2^^^^^^^^^^^^",
"^^^^^60ca46sjSHFFGk26^^^^^^^^^^^",
"^^^^^^635666hAlZZd-66^^^^^^^^^^^",
"^^^^^^6666662;^+:2666^^^^^^^^^^^",
"^^^^^^^6666668# $966^^^^^^^^^^^^",
"^^^^^^^^666667,O%766^^^^^^^^^^^^",
"^^^^^^^^^^6666<o@76^^^^^^^^^^^^^",
"^^^^^^^^^^^67&X.^^^^^^^^^^^^^^^^",
"^^^^^^^^^^^^^^^^^^^^^^^^^^^^^^^^",
"^^^^^^^^^^^^^^^^^^^^^^^^^^^^^^^^",
"^^^^^^^^^^^^^^^^^^^^^^^^^^^^^^^^",
"^^^^^^^^^^^^^^^^^^^^^^^^^^^^^^^^",
"^^^^^^^^^^^^^^^^^^^^^^^^^^^^^^^^",
"^^^^^^^^^^^^^^^^^^^^^^^^^^^^^^^^",
"^^^^^^^^^^^^^^^^^^^^^^^^^^^^^^^^",
"^^^^^^^^^^^^^^^^^^^^^^^^^^^^^^^^",
"^^^^^^^^^^^^^^^^^^^^^^^^^^^^^^^^",
"^^^^^^^^^^^^^^^^^^^^^^^^^^^^^^^^",
"^^^^^^^^^^^^^^^^^^^^^^^^^^^^^^^^",
"^^^^^^^^^^^^^^^^^^^^^^^^^^^^^^^^"
};
