/* XPM */
static char *e33aa84f58af47a38659f3dea8e22835LT8sri2KtjqqqWqc[] = {
/* columns rows colors chars-per-pixel */
"32 32 159 2 ",
"   c None",
".  c #120D08",
"X  c #1D1209",
"o  c #1E130A",
"O  c #1C140D",
"+  c #1F150C",
"@  c #20150D",
"#  c #22170E",
"$  c #23180F",
"%  c #221910",
"&  c #261B10",
"*  c #261B11",
"=  c #271B11",
"-  c #291C12",
";  c #281D12",
":  c #291E13",
">  c #2C1F13",
",  c #2F1F12",
"<  c #281E15",
"1  c #2C1F14",
"2  c #2E231B",
"3  c #302013",
"4  c #312114",
"5  c #302115",
"6  c #312215",
"7  c #312216",
"8  c #332316",
"9  c #332317",
"0  c #352417",
"q  c #382719",
"w  c #3B291A",
"e  c #3F2B1C",
"r  c #322921",
"t  c #3F352E",
"y  c #3F362E",
"u  c #402C1C",
"i  c #412C1C",
"p  c #432E1D",
"a  c #452F1D",
"s  c #442F1E",
"d  c #452F1E",
"f  c #47301C",
"g  c #45301E",
"h  c #46301E",
"j  c #47301E",
"k  c #47311E",
"l  c #47311F",
"z  c #48311F",
"x  c #49311F",
"c  c #48321F",
"v  c #49321F",
"b  c #4A331F",
"n  c #4A3320",
"m  c #4C3420",
"M  c #4D3421",
"N  c #4E3522",
"B  c #4F3622",
"V  c #4D3B2C",
"C  c #513823",
"Z  c #533822",
"A  c #533923",
"S  c #533924",
"D  c #543A24",
"F  c #553A24",
"G  c #553B25",
"H  c #573C25",
"J  c #583B23",
"K  c #583C25",
"L  c #583D26",
"P  c #593D26",
"I  c #593E26",
"U  c #5A3E26",
"Y  c #5B3F27",
"T  c #5D3E24",
"R  c #5C3F28",
"E  c #5D3F28",
"W  c #5E4027",
"Q  c #5D4028",
"!  c #5E4128",
"~  c #5F4128",
"^  c #4B4139",
"/  c #5E4631",
"(  c #53473C",
")  c #614329",
"_  c #65452B",
"`  c #67462A",
"'  c #66472B",
"]  c #65452C",
"[  c #67472C",
"{  c #67472D",
"}  c #69472A",
"|  c #69482D",
" . c #6A482C",
".. c #6A492D",
"X. c #6B4A2D",
"o. c #6D4B2F",
"O. c #704C2D",
"+. c #704C2F",
"@. c #644730",
"#. c #644830",
"$. c #664930",
"%. c #674B33",
"&. c #674B34",
"*. c #704D30",
"=. c #714D30",
"-. c #714E31",
";. c #724E31",
":. c #724F31",
">. c #734F31",
",. c #744F31",
"<. c #745031",
"1. c #745032",
"2. c #7B593D",
"3. c #4F4741",
"4. c #5E5248",
"5. c #5F5248",
"6. c #645042",
"7. c #6B5949",
"8. c #6B594B",
"9. c #765C4A",
"0. c #615851",
"q. c #6C5C52",
"w. c #776559",
"e. c #7A675B",
"r. c #756B63",
"t. c #7F746A",
"y. c #86674E",
"u. c #876B56",
"i. c #8B7561",
"p. c #857D77",
"a. c #F85667",
"s. c #F85768",
"d. c #8C837B",
"f. c #8E8681",
"g. c #8D8782",
"h. c #968780",
"j. c #9C9894",
"k. c #B2A092",
"l. c #BDAFA4",
"z. c #BFAFAB",
"x. c #BCB5B0",
"c. c #C4BCBA",
"v. c #EFB7BD",
"b. c #EAB8BC",
"n. c #CFC4C4",
"m. c #CDC9C2",
"M. c #D4CBCC",
"N. c #D4CCCC",
"B. c #DCD7D4",
"V. c #EBD5D7",
"C. c #ECD5D8",
"Z. c #E3D9DA",
"A. c #E4E3E1",
"S. c #E6E4E4",
"D. c #E7E6E6",
"F. c #EAE4E5",
"G. c #EAE8E8",
"H. c #EAEAEA",
"J. c #EDF0F0",
/* pixels */
"                                                                ",
"                                                                ",
"                                                                ",
"                                                                ",
"        : H                                                     ",
"    6 p 6 6 ]                                   R ..F :         ",
"    > p k p ) 1.                              :.:...Y z         ",
"    z d k d Y :.,.                          ,.,.' M d * 1       ",
"  1 w k k d k Y *.:.                      ,.' Y z d     .       ",
"  *   d d k d k Z o.1.                  :.W d d z 6             ",
"              k d M ..1.:.          O.Y Z d k d z * %           ",
"                d d Y :.,.:.,.1.+.o.y.i.7.C                     ",
"                  k d ] 1.:.1.O.Y } l.H.m.2.                    ",
"                    k M ' ,.+.F %.k.A.G.b.B.                    ",
"                    k d z H H J 8.D.H.C.s.G.                    ",
"                      k z k d f 6.N.F.C.a.G.                    ",
"                        p p G ] #.d.N.Z.v.x.                    ",
"                        n n G @.} 9.c.n.c.e.                    ",
"                    S ~ n p d i.V &.y.e.q.>                     ",
"                ..n S I n n 6 < 3.h.d.0.j.0                     ",
"                    ] C d   3 o 2 t V r V t ~   O               ",
"                * 9 q e     6 @ $ O O $ X   z S :               ",
"                  n p *     d.( r.4.4.p.      $                 ",
"                    k         $./ @.@.                          ",
"                                                                ",
"                                                                ",
"                                                                ",
"                                                                ",
"                                                                ",
"                                                                ",
"                                                                ",
"                                                                "
};
