/* XPM */
static char *_043a2c6e703477ad87a9d5008adbdbaYckHZwfMI7lQpNlR[] = {
/* columns rows colors chars-per-pixel */
"32 32 120 2 ",
"   c None",
".  c #140E09",
"X  c #1D1209",
"o  c #1E130A",
"O  c #1F140B",
"+  c #1B130D",
"@  c #211810",
"#  c #261B11",
"$  c #281C12",
"%  c #281E15",
"&  c #2F2014",
"*  c #2B2118",
"=  c #2E241C",
"-  c #312215",
";  c #342416",
":  c #342417",
">  c #382617",
",  c #30241A",
"<  c #30251D",
"1  c #392718",
"2  c #3A2819",
"3  c #38281B",
"4  c #3C291A",
"5  c #3C2A1A",
"6  c #3C2A1B",
"7  c #3E2A1A",
"8  c #3E2B1B",
"9  c #3F2B1B",
"0  c #362A20",
"q  c #3F2E21",
"w  c #3F3228",
"e  c #402C1B",
"r  c #412D1C",
"t  c #432E1D",
"y  c #452F1D",
"u  c #452F1E",
"i  c #45301E",
"p  c #46301E",
"a  c #47311E",
"s  c #47311F",
"d  c #49321F",
"f  c #4A331F",
"g  c #50351F",
"h  c #463426",
"j  c #4A3320",
"k  c #4B3420",
"l  c #4B3421",
"z  c #4D3521",
"x  c #4E3521",
"c  c #4E3622",
"v  c #41342B",
"b  c #513721",
"n  c #503722",
"m  c #523823",
"M  c #523923",
"N  c #533923",
"B  c #543924",
"V  c #543A24",
"C  c #563B25",
"Z  c #593C25",
"A  c #5B3E27",
"S  c #5B3F27",
"D  c #5C4027",
"F  c #5D4128",
"G  c #5A4432",
"H  c #604127",
"J  c #604229",
"K  c #624228",
"L  c #63452B",
"P  c #65452A",
"I  c #68472C",
"U  c #6A492D",
"Y  c #6B492D",
"T  c #6B4A2D",
"R  c #6C4A2E",
"E  c #6E4C2F",
"W  c #6F4C2F",
"Q  c #644F3D",
"!  c #714E30",
"~  c #724E31",
"^  c #724F31",
"/  c #734F31",
"(  c #744F31",
")  c #745031",
"_  c #735134",
"`  c #6B5B4F",
"'  c #755942",
"]  c #755D48",
"[  c #725C4D",
"{  c #675C53",
"}  c #615A54",
"|  c #726357",
" . c #766D66",
".. c #7B6C63",
"X. c #7B726C",
"o. c #7D7670",
"O. c #80644C",
"+. c #82674F",
"@. c #85684F",
"#. c #827368",
"$. c #89796F",
"%. c #8B7D71",
"&. c #917D70",
"*. c #F76E7C",
"=. c #9B887F",
"-. c #F4949E",
";. c #C9BEBE",
":. c #EDB1B7",
">. c #CFCBC5",
",. c #D0C7C1",
"<. c #D2C7C7",
"1. c #D7CAC9",
"2. c #D5CBCC",
"3. c #DFDBD8",
"4. c #E1D6D5",
"5. c #ECDDDF",
"6. c #E4E0E0",
"7. c #EAE7E7",
"8. c #E9E8E9",
"9. c #EAE8E9",
/* pixels */
"                                                                ",
"                                                                ",
"                                                                ",
"                                                                ",
"                                                                ",
"                                                                ",
"                                                                ",
"                                                                ",
"              $ k                               F               ",
"          # 1 e 8 Y                           Y W J 8           ",
"            t p p I (                       ( ^ S f ;           ",
"          : u p p B ^                     ( W B p   .           ",
"          &   p p j S ^ (                 R N u 8 +             ",
"                  u p B W (             J z u f   @             ",
"                    p p D ) ^ ^ ) W _ O.Q k                     ",
"                      p f Y ^ ( W J O.3.>.@.                    ",
"                        p b R ^ S ] ,.9.:.4.                    ",
"                          p f f f #.9.7.*.5.                    ",
"                          p u f N [ ;.6.-.1.                    ",
"                    Y     z u N R P =.<.2.$.                    ",
"                      z B D p u ` G ' &...q                     ",
"                        L z p 3 $ }  .X.X.h                     ",
"                      ; 8 e f 3 O * = < 0 p N 8                 ",
"                      u 8 #   > O X X O < |                     ",
"                                3 v w { %.                      ",
"                                                                ",
"                                                                ",
"                                                                ",
"                                                                ",
"                                                                ",
"                                                                ",
"                                                                "
};
