/* XPM */
static char *result[] = {
/* columns rows colors chars-per-pixel */
"32 32 122 2 ",
"   c #1A0F06",
".  c #1F140B",
"X  c #1F150C",
"o  c #20150C",
"O  c #22170E",
"+  c #22170F",
"@  c #261A10",
"#  c #241A12",
"$  c #291E15",
"%  c #2E2115",
"&  c #312316",
"*  c #332316",
"=  c #352517",
"-  c #372617",
";  c #32261D",
":  c #392718",
">  c #382719",
",  c #34291F",
"<  c #35291F",
"1  c #3D2A1B",
"2  c #3F2B1B",
"3  c #3F2B1C",
"4  c #3F2C1C",
"5  c #402B19",
"6  c #422C19",
"7  c #442D1B",
"8  c #422D1C",
"9  c #442E1C",
"0  c #452E1C",
"q  c #452F1D",
"w  c #452F1E",
"e  c #47301C",
"r  c #45301E",
"t  c #46301E",
"y  c #47301E",
"u  c #47311E",
"i  c #48311F",
"p  c #49321F",
"a  c #4A331F",
"s  c #493220",
"d  c #4C3420",
"f  c #4D3521",
"g  c #4C3726",
"h  c #4D3C2E",
"j  c #503722",
"k  c #533821",
"l  c #523823",
"z  c #553922",
"x  c #523B27",
"c  c #543A24",
"v  c #563C25",
"b  c #573C25",
"n  c #583B24",
"m  c #583D26",
"M  c #5A3E26",
"N  c #5E4026",
"B  c #604229",
"V  c #61422A",
"C  c #654328",
"Z  c #63452B",
"A  c #67462C",
"S  c #65472F",
"D  c #69482C",
"F  c #6A492D",
"G  c #6B4A2E",
"H  c #6C4A2E",
"J  c #6D4B2E",
"K  c #664D38",
"L  c #734F30",
"P  c #724F31",
"I  c #734F31",
"U  c #714F34",
"Y  c #745031",
"T  c #574B41",
"R  c #584E46",
"E  c #58504A",
"W  c #5E534B",
"Q  c #645244",
"!  c #675448",
"~  c #745B46",
"^  c #725D4C",
"/  c #6C5F55",
"(  c #6E5F54",
")  c #735F53",
"_  c #7A624D",
"`  c #6B645F",
"'  c #7D6A5C",
"]  c #7A6C60",
"[  c #746E69",
"{  c #7F7064",
"}  c #7F7266",
"|  c #78716D",
" . c #82664E",
".. c #826651",
"X. c #837162",
"o. c #837467",
"O. c #967D69",
"+. c #F57280",
"@. c #F57D8A",
"#. c #9E8E80",
"$. c #9F9083",
"%. c #A49284",
"&. c #A3948F",
"*. c #B1A4A1",
"=. c #B2A6A1",
"-. c #B9A8A4",
";. c #EEB3B9",
":. c #D0C8C1",
">. c #D3CBCA",
",. c #D1CDC9",
"<. c #D7D0D0",
"1. c #E3D3D3",
"2. c #E5D0D3",
"3. c #E9D0D2",
"4. c #EDD2D5",
"5. c #E2DFDD",
"6. c #E2E2DF",
"7. c #E7E7E7",
"8. c #E9E9EA",
"9. c #E9EAEA",
"0. c #EAEBEA",
"q. c None",
/* pixels */
"q.q.q.q.q.q.q.q.q.q.q.q.q.q.q.q.q.q.q.q.q.q.q.q.q.q.q.q.q.q.q.q.",
"q.q.q.q.q.q.q.q.q.q.q.q.q.q.q.q.q.q.q.q.q.q.q.q.q.q.q.q.q.q.q.q.",
"q.q.q.q.q.q.q.q.q.q.q.q.q.q.q.q.q.q.q.q.q.q.q.q.q.q.q.q.q.q.q.q.",
"q.q.q.q.q.q.q.q.q.q.q.q.q.q.q.q.q.q.q.q.q.q.q.q.q.q.q.q.q.q.q.q.",
"q.q.q.q.q.q.q.q.q.q.q.q.q.q.q.q.q.q.q.q.q.q.q.q.q.q.q.q.q.q.q.q.",
"q.q.q.q.q.q.q.q.q.q.q.q.q.q.q.q.q.q.q.q.q.q.q.q.q.q.q.q.q.q.q.q.",
"q.q.q.q.q.q.q.q.q.q.q.q.q.q.q.q.q.q.q.q.q.q.q.q.q.q.q.q.q.q.q.q.",
"q.q.q.q.q.q.q.q.q.q.q.q.q.q.q.q.q.q.q.q.q.q.q.q.q.q.q.q.q.q.q.q.",
"q.q.q.q.q.q.t t t i A q.q.q.q.q.q.q.q.I V s t t q.q.q.q.q.q.q.q.",
"q.q.q.q.q.t t t t t f F Y I q.q.q.q.C z y t t t t q.q.q.q.q.q.q.",
"q.q.q.q.t t t t t t t M L I I Y H U O.X.x t t t t q.q.q.q.q.q.q.",
"q.q.q.q.t t t t t t t s H I I J N  .5.6._ 7 t t t q.q.q.q.q.q.q.",
"q.q.q.t t t t t t t t t j G P n ~ :.0.;.1.Q 9 t t q.q.q.q.q.q.q.",
"q.q.q.t t t t t t t t t t d j k { 8.9.+.4.} 6 t t q.q.q.q.q.q.q.",
"q.q.q.q.t t t t t t t t t r t e ) >.7.@.3.] 6 t t q.q.q.q.q.q.q.",
"q.q.q.q.q.t t t t t t q.t w c J S &.<.2.=.g q t t q.q.q.q.q.q.q.",
"q.q.q.q.q.q.t t t w l v b t d K Z ..-.*.! 0 t t t q.q.q.q.q.q.q.",
"q.q.q.q.q.q.t t t t p m b t 2 W T ^ ' / < q.w t t q.q.q.q.q.q.q.",
"q.q.q.q.q.q.q.t t q.q.B a y :   E ` [ | h D 4 % q.q.q.q.q.q.q.q.",
"q.q.q.q.q.q.q.q.t * = > 1 u : o O O + @ 5 d 8 # q.q.q.q.q.q.q.q.",
"q.q.q.q.q.q.q.q.q.q.u 3 q.q.- X . . . $ ( q.q.q.q.q.q.q.q.q.q.q.",
"q.q.q.q.q.q.q.q.q.q.q.q.q.q.q.& , ; R o.,.q.q.q.q.q.q.q.q.q.q.q.",
"q.q.q.q.q.q.q.q.q.q.q.q.q.q.q.q.$.#.%.q.q.q.q.q.q.q.q.q.q.q.q.q.",
"q.q.q.q.q.q.q.q.q.q.q.q.q.q.q.q.q.q.q.q.q.q.q.q.q.q.q.q.q.q.q.q.",
"q.q.q.q.q.q.q.q.q.q.q.q.q.q.q.q.q.q.q.q.q.q.q.q.q.q.q.q.q.q.q.q.",
"q.q.q.q.q.q.q.q.q.q.q.q.q.q.q.q.q.q.q.q.q.q.q.q.q.q.q.q.q.q.q.q.",
"q.q.q.q.q.q.q.q.q.q.q.q.q.q.q.q.q.q.q.q.q.q.q.q.q.q.q.q.q.q.q.q.",
"q.q.q.q.q.q.q.q.q.q.q.q.q.q.q.q.q.q.q.q.q.q.q.q.q.q.q.q.q.q.q.q.",
"q.q.q.q.q.q.q.q.q.q.q.q.q.q.q.q.q.q.q.q.q.q.q.q.q.q.q.q.q.q.q.q.",
"q.q.q.q.q.q.q.q.q.q.q.q.q.q.q.q.q.q.q.q.q.q.q.q.q.q.q.q.q.q.q.q.",
"q.q.q.q.q.q.q.q.q.q.q.q.q.q.q.q.q.q.q.q.q.q.q.q.q.q.q.q.q.q.q.q.",
"q.q.q.q.q.q.q.q.q.q.q.q.q.q.q.q.q.q.q.q.q.q.q.q.q.q.q.q.q.q.q.q."
};
