/* XPM */
static char *result[] = {
/* columns rows colors chars-per-pixel */
"32 32 136 2 ",
"   c #1F150D",
".  c #1E150E",
"X  c #20170F",
"o  c #22170F",
"O  c #20180F",
"+  c #231910",
"@  c #241911",
"#  c #251A12",
"$  c #251B12",
"%  c #271C11",
"&  c #271C14",
"*  c #271D15",
"=  c #281C11",
"-  c #2C1F15",
";  c #2B2017",
":  c #2F2014",
">  c #2E2116",
",  c #302115",
"<  c #322316",
"1  c #372414",
"2  c #342416",
"3  c #352517",
"4  c #372618",
"5  c #392718",
"6  c #422C19",
"7  c #412C1C",
"8  c #422E1C",
"9  c #432E1D",
"0  c #442E1C",
"q  c #442F1D",
"w  c #452F1D",
"e  c #452F1E",
"r  c #45301F",
"t  c #46301E",
"y  c #47301E",
"u  c #46311E",
"i  c #47301F",
"p  c #47311F",
"a  c #48311D",
"s  c #48311E",
"d  c #48311F",
"f  c #48321F",
"g  c #483321",
"h  c #4A3320",
"j  c #4C3421",
"k  c #4C3521",
"l  c #4D3521",
"z  c #4F3620",
"x  c #4F3622",
"c  c #4F3A29",
"v  c #503722",
"b  c #523923",
"n  c #533923",
"m  c #543922",
"M  c #563A24",
"N  c #563B25",
"B  c #573B26",
"V  c #573C25",
"C  c #583C25",
"Z  c #583C26",
"A  c #5A3D27",
"S  c #5A3E26",
"D  c #5B3E27",
"F  c #5B3F27",
"G  c #5C3F27",
"H  c #533E2D",
"J  c #4B3B30",
"K  c #5B4028",
"L  c #5D4029",
"P  c #5E4028",
"I  c #5E4129",
"U  c #5F4129",
"Y  c #5A422E",
"T  c #4C4239",
"R  c #574130",
"E  c #5A493B",
"W  c #64442A",
"Q  c #64452B",
"!  c #65462B",
"~  c #66462B",
"^  c #67472B",
"/  c #66462C",
"(  c #67472D",
")  c #68482C",
"_  c #68492F",
"`  c #6C492C",
"'  c #6C4A2E",
"]  c #6E4C2F",
"[  c #734E30",
"{  c #724E31",
"}  c #734F31",
"|  c #744F31",
" . c #6E5037",
".. c #735032",
"X. c #745031",
"o. c #524941",
"O. c #5F5751",
"+. c #635142",
"@. c #605144",
"#. c #6B5A4B",
"$. c #645D57",
"%. c #6C5D51",
"&. c #6C5E51",
"*. c #705F53",
"=. c #6F665F",
"-. c #766B62",
";. c #816249",
":. c #8B7260",
">. c #867469",
",. c #947C6C",
"<. c #887B70",
"1. c #8A7D73",
"2. c #9C8774",
"3. c #958A81",
"4. c #9E928B",
"5. c #B2A8A2",
"6. c #F28E99",
"7. c #F38E99",
"8. c #C4B9AF",
"9. c #C3BEB9",
"0. c #C0BFBA",
"q. c #F1A5AE",
"w. c #F3A7B0",
"e. c #CAC3BC",
"r. c #CBC0BE",
"t. c #CDC3C3",
"y. c #CFCAC6",
"u. c #DAD4D4",
"i. c #E9C5C8",
"p. c #EFCDD2",
"a. c #DDE2E1",
"s. c #E3E5E5",
"d. c #E9E8E8",
"f. c #E9EFEF",
"g. c #ECEFEF",
"h. c None",
/* pixels */
"h.h.h.h.h.h.h.h.h.h.h.h.h.h.h.h.h.h.h.h.h.h.h.h.h.h.h.h.h.h.h.h.",
"h.h.h.h.h.h.h.h.h.h.h.h.h.h.h.h.h.h.h.h.h.h.h.h.h.h.h.h.h.h.h.h.",
"h.h.h.h.h.h.h.h.h.h.h.h.h.h.h.h.h.h.h.h.h.h.h.h.h.h.h.h.h.h.h.h.",
"h.h.h.h.h.h.h.h.h.h.h.h.h.h.h.h.h.h.h.h.h.h.h.h.h.h.h.h.h.h.h.h.",
"h.h.h.h.h.h.h.h.h.h.h.h.h.h.h.h.h.h.h.h.h.h.h.h.h.h.h.h.h.h.h.h.",
"h.h.h.h.h.h.h.h.h.h.h.h.h.h.h.h.h.h.h.h.h.h.h.h.h.h.h.h.h.h.h.h.",
"h.h.h.h.h.h.h.h.h.h.h.h.h.h.h.h.h.h.h.h.h.h.h.h.h.h.h.h.h.h.h.h.",
"h.h.h.h.h.h.h.h.h.h.h.h.h.h.h.h.h.h.h.h.h.h.h.h.h.h.h.h.h.h.h.h.",
"h.h.h.h.h.h.h.h.h.h.h.h.h.} } [ } ..h.h.h.h.h.h.h.h.h.h.h.h.h.h.",
"h.h.h.h.h.h.h.h.h.h.h.} } ] ` ;.8.e.2.m h.h.h.h.h.h.h.h.h.h.h.h.",
"h.h.h.h.h.h.h.h.h.X.| } U a #.y.g.p.i.9._ h.h.h.h.h.h.h.h.h.h.h.",
"h.h.h.h.h.h.h.G V C V N y 6 4.d.f.6.7.a.R P h.h.h.h.h.h.h.h.h.h.",
"h.h.h.h.h.h.N t q e e t v z >.t.s.q.w.0.c s G h.h.h.h.h.h.h.h.h.",
"h.h.h.h.h.t n x h.t t d F ( / ,.r.u.5.+.0 t t h.h.h.h.h.h.h.h.h.",
"h.h.h.h.t p W h.h.h.t 0 E -.H  .:.*.J 1 h.t t ^ h.h.h.h.h.h.h.h.",
"h.h.h.h.w B } h.h.h.t 9 = # $.T =.o.O.h.h.h.t G h.h.h.h.h.h.h.h.",
"h.h.h.h.t j ) g - h.f r ; $ @ * o & h.h.h.D i t h.h.h.h.h.h.h.h.",
"h.h.h.h.t e S ! + h.' Y 1.%.&.<.@.3.h.h.h.~ A l h.h.h.h.h.h.h.h.",
"h.h.h.h.h.t t k h.h.{ b K L L I I r $ h.4 Q Z w h.h.h.h.h.h.h.h.",
"h.h.h.h.h.7 , X h.h.u 5 w e e h.h.< % h.h.2 3 h.h.h.h.h.h.h.h.h.",
"h.h.h.h.h.h.:   h.h.> . 8 t t h.h.O h.h.h.h.h.h.h.h.h.h.h.h.h.h.",
"h.h.h.h.h.h.h.h.h.h.h.h.h.e M h.h.h.h.h.h.h.h.h.h.h.h.h.h.h.h.h.",
"h.h.h.h.h.h.h.h.h.h.h.h.h.h.h h.h.h.h.h.h.h.h.h.h.h.h.h.h.h.h.h.",
"h.h.h.h.h.h.h.h.h.h.h.h.h.h.t N h.h.h.h.h.h.h.h.h.h.h.h.h.h.h.h.",
"h.h.h.h.h.h.h.h.h.h.h.h.h.h.h.h.h.h.h.h.h.h.h.h.h.h.h.h.h.h.h.h.",
"h.h.h.h.h.h.h.h.h.h.h.h.h.h.h.h.h.h.h.h.h.h.h.h.h.h.h.h.h.h.h.h.",
"h.h.h.h.h.h.h.h.h.h.h.h.h.h.h.h.h.h.h.h.h.h.h.h.h.h.h.h.h.h.h.h.",
"h.h.h.h.h.h.h.h.h.h.h.h.h.h.h.h.h.h.h.h.h.h.h.h.h.h.h.h.h.h.h.h.",
"h.h.h.h.h.h.h.h.h.h.h.h.h.h.h.h.h.h.h.h.h.h.h.h.h.h.h.h.h.h.h.h.",
"h.h.h.h.h.h.h.h.h.h.h.h.h.h.h.h.h.h.h.h.h.h.h.h.h.h.h.h.h.h.h.h.",
"h.h.h.h.h.h.h.h.h.h.h.h.h.h.h.h.h.h.h.h.h.h.h.h.h.h.h.h.h.h.h.h.",
"h.h.h.h.h.h.h.h.h.h.h.h.h.h.h.h.h.h.h.h.h.h.h.h.h.h.h.h.h.h.h.h."
};
