/* XPM */
static char *result[] = {
/* columns rows colors chars-per-pixel */
"32 32 74 1 ",
"  c #1B130C",
". c #1E160F",
"X c #281B11",
"o c #302216",
"O c #342417",
"+ c #372618",
"@ c #392718",
"# c #3E2B1B",
"$ c #3F2B1B",
"% c #422B18",
"& c #432C19",
"* c #422C1A",
"= c #442D1B",
"- c #432D1C",
"; c #432E1D",
": c #442E1C",
"> c #452F1C",
", c #442E1D",
"< c #452F1E",
"1 c #46301D",
"2 c #45301E",
"3 c #46301E",
"4 c #47301E",
"5 c #47311E",
"6 c #47311F",
"7 c #48311F",
"8 c #483220",
"9 c #493422",
"0 c #4F3520",
"q c #4F3621",
"w c #4B3624",
"e c #503722",
"r c #553A24",
"t c #553B25",
"y c #573B25",
"u c #5A3D25",
"i c #5B3E27",
"p c #553F2F",
"a c #4C3D30",
"s c #5F4127",
"d c #624126",
"f c #614229",
"g c #62442A",
"h c #64452A",
"j c #65452B",
"k c #6D4A2D",
"l c #734F31",
"z c #744F31",
"x c #6A523F",
"c c #745032",
"v c #5E5247",
"b c #695647",
"n c #705947",
"m c #71655B",
"M c #75685B",
"N c #73685F",
"B c #776A5D",
"V c #7A6A5D",
"C c #867465",
"Z c #877C71",
"A c #90867E",
"S c #978E85",
"D c #9A938B",
"F c #9B938B",
"G c #A69993",
"H c #A59E99",
"J c #C5BEBB",
"K c #EEBEC3",
"L c #D8D3D3",
"P c #EFC0C5",
"I c #E4C6C8",
"U c #E6C8CA",
"Y c #EDF1F1",
"T c None",
/* pixels */
"TTTTTTTTTTTTTTTTTTTTTTTTTTTTTTTT",
"TTTTTTTTTTTTTTTTTTTTTTTTTTTTTTTT",
"TTTTTTTTTTTTTTTTTTTTTTTTTTTTTTTT",
"TTTTTTTTTTTTTTTTTTTTTTTTTTTTTTTT",
"TTTTTTTTTTTTTTTTTTTTTTTTTTTTTTTT",
"TTTTTTTTTTTTTTTTTTTTTTTTTTTTTTTT",
"TTTTTTTTTTTTTTTTTTTTTTTTTTTTTTTT",
"TTTTTTTTTTTTTTTTTTTTTTTTTTTTTTTT",
"TTTTTTTTTTTTTTTTTTTTTTTTTTTTTTTT",
"TTTTTTTTTTTTTTTTTTTTTTTTTTTTTTTT",
"TTTTTTTTTTllckd&%TTTTTTTTTTTTTTT",
"TTTTTTTT,rzcknVBMw>TTTTTTTTTTTTT",
"TTTTTTTTtylsxJYPKS8TTTTTTTTTTTTT",
"TTTTTTT5jqhfpGLUIZ6TTTTTTTTTTTTT",
"TTTTTTT4gi7eubHFDA93TTTTTTTTTTTT",
"TTTTTTT355320CvmNa,3TTTTTTTTTTTT",
"TTTTTTT333333-=*:133TTTTTTTTTTTT",
"TTTTTTTT333333# @53TTTTTTTTTTTTT",
"TTTTTTTTT33333;O$33TTTTTTTTTTTTT",
"TTTTTTTTTTT333<o+53TTTTTTTTTTTTT",
"TTTTTTTTTTTT3<X.TTTTTTTTTTTTTTTT",
"TTTTTTTTTTTTTTTTTTTTTTTTTTTTTTTT",
"TTTTTTTTTTTTTTTTTTTTTTTTTTTTTTTT",
"TTTTTTTTTTTTTTTTTTTTTTTTTTTTTTTT",
"TTTTTTTTTTTTTTTTTTTTTTTTTTTTTTTT",
"TTTTTTTTTTTTTTTTTTTTTTTTTTTTTTTT",
"TTTTTTTTTTTTTTTTTTTTTTTTTTTTTTTT",
"TTTTTTTTTTTTTTTTTTTTTTTTTTTTTTTT",
"TTTTTTTTTTTTTTTTTTTTTTTTTTTTTTTT",
"TTTTTTTTTTTTTTTTTTTTTTTTTTTTTTTT",
"TTTTTTTTTTTTTTTTTTTTTTTTTTTTTTTT",
"TTTTTTTTTTTTTTTTTTTTTTTTTTTTTTTT"
};
