/* XPM */
static char *result[] = {
/* columns rows colors chars-per-pixel */
"25 32 14 1 ",
"  c #323234",
". c #463D3C",
"X c #534721",
"o c #5C572C",
"O c #444444",
"+ c #545456",
"@ c #695857",
"# c #6D6D6E",
"$ c #857E30",
"% c #887976",
"& c #B1A734",
"* c #D7906E",
"= c #B1A29D",
"- c None",
/* pixels */
"-------------------------",
"--------.........--------",
"------..@@%%@%%@@..------",
"-----.@%@%%%%%%%@%@.-----",
"----.@%=@%%%%%%%@=%@.----",
"---.@%%=%=%%%%%=%=%%@.---",
"---.@%%%%=======%%%%@.---",
"--.@%%%%%%=====%%%%%%@.--",
"--.@%%%%%%%%%%%%%%%%%@.--",
"--.@%%%%%%%%%%%%%%%%%@.--",
"--.@%%%%@%%%%%%%@%%%%@.--",
"--.X@%@%@%%%@%%%@%@%@X.--",
"--X*@%@%@%%%@%%%@%@%@*X--",
"--X*@@@%@@%%@%%@@%@@@*X--",
"---X@@@@@@%@@@%@@@@@@X---",
"----.@@@@@@@@@@@@@@@.----",
"-----.@@@@@@@@@@@@@.-----",
"---oo .@.@@@@@@@.@. oo---",
"--o$ OO. .@.@.@. .OO $o--",
"-o& OO+OO . . . OO+OO &o-",
"-o$ OO++OOOOOOOOO++OO $o-",
"-- OOO++OO+++++OO++OOO --",
"-o OO++#O+#+++#+O#+OOO o-",
"- OOO++#O+#####+O#++OOO -",
"- OOO++#O#######O#++OOO -",
"- OO+++#O#######O#+++OO -",
"- OO++##+#######+##++OO -",
"- OO++#############++OO -",
"- OO++#############++OO -",
"-- O+++###########+++O --",
"---  OO++#######++OO  ---",
"-----   OOOOOOOOO   -----"
};
