/* XPM */
static char *result[] = {
/* columns rows colors chars-per-pixel */
"27 32 20 1 ",
"  c #323234",
". c #463D3C",
"X c #534721",
"o c #5C572C",
"O c #444444",
"+ c gray31",
"@ c #545456",
"# c #695857",
"$ c #6D6D6E",
"% c gray46",
"& c gray50",
"* c #857E30",
"= c #887976",
"- c #B1A734",
"; c #D7906E",
": c #CBC266",
"> c #979797",
", c #B1A29D",
"< c #E3DDA3",
"1 c None",
/* pixels */
"111111111111111111111111111",
"111111111111111111111111111",
"111111111.........111111111",
"1111111..##==#==##..1111111",
"111111.#=#=======#=#.111111",
"11111.#=,#=======#,=#.11111",
"1111.#==,=,=====,=,==#.1111",
"1111.#====,,,,,,,====#.1111",
"111.#======,,,,,======#.111",
"111.#=================#.111",
"111.#=================#.111",
"111.#====#=======#====#.111",
"111.X#=#=#===#===#=#=#X.111",
"111X;#=#=#===#===#=#=#;X111",
"111X;###=##==#==##=###;X111",
"1111X######=###=######X1111",
"11111.###############.11111",
"111111.#############.111111",
"1111oo .#.#######.#. oo1111",
"111o*: O. .#.#.#. .OO *o111",
"11o-:< @OO . . . OOOOO -o11",
"11o*< @$@OOOOOOOOOOOOO *o11",
"1o*-- @$@@OO@@@@OO@OOOO 111",
"1+&> @$$@@O@$@@@OO@@OOO 111",
"1+&> $$$@@O@$$$@@O@@OOO 111",
"1+% @$$$$@O@$$$$@OO@@OOO 11",
"11+ $$$$$@O$$$$$$@O@@OOOO 1",
"11 @$$$$$@@$$$$$$$@@@@OOO 1",
"1 @$$$$$$@$$$$$$$$$@@@OO 11",
"1 O@$$$$$$$$@$$$$$$$@OOO 11",
"11  O@$$$$@@@@$$$$$@@   111",
"1111  OOOO@@@@@@OOO  111111"
};
