/* XPM */
static char *result[] = {
/* columns rows colors chars-per-pixel */
"23 32 37 1 ",
"  c #2E1E22",
". c #323234",
"X c #463D3C",
"o c #534721",
"O c #5C572C",
"+ c #444444",
"@ c gray31",
"# c #545456",
"$ c #695857",
"% c #6D6D6E",
"& c gray46",
"* c gray50",
"= c #964F00",
"- c #857E30",
"; c #9B6545",
": c #9D704C",
"> c #887976",
", c #C27256",
"< c #B1A734",
"1 c #D7906E",
"2 c #DDA37E",
"3 c #CBC266",
"4 c #979797",
"5 c #B1A29D",
"6 c #E0AF87",
"7 c #E0BA8E",
"8 c #EEBE93",
"9 c #E5C495",
"0 c #EBC095",
"q c #F0C79B",
"w c #E3DDA3",
"e c #F6D2A3",
"r c #FFE1AF",
"t c gray85",
"y c #D9D9DD",
"u c white",
"i c None",
/* pixels */
"iiiiiiiiiiiiiiiiiiiiiii",
"iiiiiiXXXXXXXXXiiiiiiii",
"iiiiXX$$>>>>>$$XXiiiiii",
"iiiX$>>>>$$$$>>>$Xiiiii",
"iiX$>55>>>>>>$$$>$Xiiii",
"iX$>5>$>55>>>>5>$>$Xiii",
"iX$>>$>5>$$>>$>5>$>Xiii",
"iX$>>$>>$>>55>$>>$>$Xii",
"iio$$8rrrrr>>>>$>$>$Xii",
"iio18rrrrrr$$>>$>>$$Xii",
"iio88rrrrr>>>$>$>>$$Xii",
"iio8rrr0rr>>>$$>$>>$Xii",
"iio8re6errr>>oo>$>>$Xii",
"iio8q69oorr>o8ro$>$$Xii",
"iio267o trr>8:ro$>$$Xii",
"iio,0ry urr>r:8o$$$$Xii",
"iio;8r==rrrr81o$$$$Xiii",
"iiio18rrrrr811$$$$Xiiii",
"iiiio:1188811::X$Xiiiii",
"iiiiiooooooo....Xiiiiii",
"iiiiO-<#%%%%###+..iiiii",
"iiiiO-<3%%###ww%++..iii",
"iiiiOO-3w3<O3OOO%#++.ii",
"iiiiO-<--OOOO<w3-%##+.i",
"iiiiiOO-----O3<44*%#++.",
"iiiiiO<3w-ww3@*44&%%#+.",
"iiiiiO<33O333O@*&@%%##.",
"iiiii@@*<-O<<O*@@.#%#+.",
"iiii@44**-@OO**@...#+.i",
"iiii@444&@ii@@@ii..+.ii",
"iiiii@@@@iiiiiiiiii.iii",
"iiiiiiiiiiiiiiiiiiiiiii"
};
