/* XPM */
static char *result[] = {
/* columns rows colors chars-per-pixel */
"21 31 38 1 ",
"  c #2E1E22",
". c #323234",
"X c #463D3C",
"o c #534721",
"O c #5C572C",
"+ c #444444",
"@ c gray31",
"# c #545456",
"$ c #565657",
"% c #695857",
"& c #6D6D6E",
"* c gray46",
"= c gray50",
"- c #964F00",
"; c #857E30",
": c #9B6545",
"> c #9D704C",
", c #887976",
"< c #C27256",
"1 c #B1A734",
"2 c #D7906E",
"3 c #DDA37E",
"4 c #CBC266",
"5 c #979797",
"6 c #B1A29D",
"7 c #E0AF87",
"8 c #E0BA8E",
"9 c #EEBE93",
"0 c #E5C495",
"q c #EBC095",
"w c #F0C79B",
"e c #E3DDA3",
"r c #F6D2A3",
"t c #FFE1AF",
"y c gray85",
"u c #D9D9DD",
"i c white",
"p c None",
/* pixels */
"ppppppppppppppppppppp",
"pppppXXXXXXXXXppppppp",
"pppXX%%,,,,,%%XXppppp",
"ppX%,,,,%%%%,,,%Xpppp",
"pX%,66,,,,,,%%%,%Xppp",
"p%,6,%,66,,,,6,%,%Xpp",
"p%,,%,6,%%,,%,6,%,Xpp",
"p%,,%,,%,,66,%,,%,%Xp",
"po%%9ttttt,,,,%,%,%Xp",
"po29tttttt%%,,%,,%%Xp",
"po99ttttt,,,%,%,,%%Xp",
"po9tttqtt,,,%%,%,,%Xp",
"po9tr7rttt,,oo,%,,%Xp",
"po9w70oott,o9to%,%%Xp",
"po378o ytt,9>to%,%%Xp",
"po<qtu itt,t>9o%%%%Xp",
"po:9t--tttt92o%%%%Xpp",
"ppo29ttttt922%%%%Xppp",
"pppo>2299922>>X%Xpppp",
"ppppooooooo....Xppppp",
"pppO;1#&&&&&&#+.ppppp",
"pppO;14&&#;e&&#+.pppp",
"pppOO;4e41OO1&&#+.ppp",
"pppO;1;OOOe4O&&#++.pp",
"ppppOO;@55441&&##+.pp",
"ppppO14@55=1;$&&#++.p",
"ppppO14@*=*@O$&&##+.p",
"ppp@O;4O@@@O;$&&##+.p",
"ppp@=OOOO;=55*&&#+.pp",
"pppp@@@pp@555=&#..ppp",
"pppppppppp@@@@..ppppp"
};
