/* XPM */
static char *_652201980182[] = {
/* columns rows colors chars-per-pixel */
"32 32 100 2 ",
"   c #070703030303",
".  c #0B0B06060606",
"X  c #0F0F07070606",
"o  c #0F0F07070707",
"O  c #0F0F08080707",
"+  c #101007070606",
"@  c #121208080707",
"#  c #131309090808",
"$  c #15150A0A0808",
"%  c #15150B0B0909",
"&  c #17170C0C0A0A",
"*  c #17170C0C0B0B",
"=  c #18180D0D0A0A",
"-  c #1C1C0F0F0B0B",
";  c #19190E0E0D0D",
":  c #1D1D0F0F0C0C",
">  c #1B1B10100F0F",
",  c #1C1C10100D0D",
"<  c #1E1E10100C0C",
"1  c #1D1D10100E0E",
"2  c #202012120F0F",
"3  c #212112121010",
"4  c #252516161212",
"5  c #232315151414",
"6  c #252516161616",
"7  c #282817171313",
"8  c #2B2B19191414",
"9  c #2A2A19191717",
"0  c #2C2C1A1A1515",
"q  c #2D2D1B1B1616",
"w  c #292918181818",
"e  c #282819191818",
"r  c #2A2A19191919",
"t  c #2C2C1B1B1818",
"y  c #2F2F1D1D1818",
"u  c #2F2F1D1D1B1B",
"i  c #31311D1D1717",
"p  c #31311D1D1919",
"a  c #31311E1E1C1C",
"s  c #353520201B1B",
"d  c #343420201D1D",
"f  c #363621211C1C",
"g  c #3A3A23231D1D",
"h  c #383823231F1F",
"j  c #393923231F1F",
"k  c #3C3C24241E1E",
"l  c #3D3D26261F1F",
"z  c #393923232020",
"x  c #3B3B25252121",
"c  c #3C3C25252121",
"v  c #3F3F27272020",
"b  c #3D3D26262222",
"n  c #3D3D27272323",
"m  c #3F3F27272323",
"M  c #3F3F28282222",
"N  c #404028282222",
"B  c #424229292323",
"V  c #414129292525",
"C  c #434329292424",
"Z  c #43432B2B2525",
"A  c #43432A2A2626",
"S  c #44442A2A2525",
"D  c #44442B2B2626",
"F  c #45452C2C2727",
"G  c #48482E2E2727",
"H  c #4A4A2E2E2727",
"J  c #47472D2D2828",
"K  c #48482E2E2828",
"L  c #4B4B2F2F2A2A",
"P  c #4C4C2F2F2828",
"I  c #4B4B30302A2A",
"U  c #4C4C30302A2A",
"Y  c #4F4F32322C2C",
"T  c #4F4F33332C2C",
"R  c #505032322A2A",
"E  c #525234342B2B",
"W  c #505032322C2C",
"Q  c #535335352D2D",
"!  c #575737372F2F",
"~  c #575737373030",
"^  c #575738383030",
"/  c #595938383030",
"(  c #585838383131",
")  c #5B5B3A3A3131",
"_  c #5C5C3A3A3232",
"`  c #5D5D3B3B3333",
"'  c #5D5D3C3C3333",
"]  c #60603D3D3434",
"[  c #61613E3E3434",
"{  c #63633F3F3636",
"}  c #646440403636",
"|  c #676742423838",
" . c #686842423838",
".. c #6B6B44443A3A",
"X. c #6C6C44443A3A",
"o. c #6C6C45453B3B",
"O. c #6E6E46463B3B",
"+. c #737349493E3E",
"@. c #74744A4A3E3E",
"#. c #74744A4A3F3F",
/* pixels */
"r r r r 9 r r r r r r r r r 9 r r r r r r r r r r e r r r r r r ",
"a d z b h a d a a f d a a d j b h a a a a d d z d d a d d d a d ",
"b J ) [ ) U A A I U A b b F ` ] ) F A b b S U W Q U A B I I A b ",
"S W  .O.] Q F L ) ) L A S Q O.+.| ` U S S L ) ' ` Q I I ) ) I A ",
"S U ` [ Q F F I ) ! P B A Q O.+.} ) G S A I ) ) Q J F L ) ! I A ",
"A J ^ ~ I A A I ) Q L A A W  .+.} ~ I A F G ~ ) L M A L ! ) U I ",
"A I ^ ^ U S A I Q ` L A m Q O.+.| ^ J A A U ) Q I A A L ^ ` ) ^ ",
"A I ) ) G S S F ) ` F A A Y  .O.} ^ I A F F ~ ` T F S J ) ) ) ) ",
"B I ) Q F S F L ) ) J S S P ` } [ ! J J A P ) ' ) Q F G ) ) Y J ",
"S L ^ ) I A F G ) Q L S S P ~ ' ' ) I m S G ! ] } ! I L ) ^ J A ",
"A L ~ ) I A S G ! ) L S A F ! ] ' ^ I A S L ! ` ) ) L I ~ ) I F ",
"A L ` ) U S S I ~ ~ L A S P ` { ' ) Y J A L ! ] ) T F G ~ ) J A ",
"A E | | Y A A I ) Q F A A U { O.[ ) ! U S G ! ! U C C S Q Q L B ",
"A U | O.Q J S I Q ` Q L A I ' ] ! R U G b B H H B h h B L L B h ",
"A Q ` [ ` Q J F ` ` ) U F A G G B l h i 0 a g h i 0 0 a h h i 9 ",
"A F Q ' ) Q L I ) ` ) Q F l f i 0 4 2 - : 2 7 r 3 < - 2 7 r 3 - ",
"S J ~ ` W G F L ^ ) Q G B d 5 , $ + $ + @ @ $ * # o o O $ $ # O ",
"S L ~ ^ L A S U ^ ) W F M i < & + $ = = $ = < < = o & & < < & # ",
"S L ) ^ L A F F ^ ' ) U B a < < 7 0 0 r 0 d l b d 0 q f l l s r ",
"S L ^ ) F Z B L ) ' ) E B i < 2 i l h z b S U R A b b S I Q F Z ",
"A L ) Q L B A L ! ) Y S b i < = 0 h b B B G ~ ~ F A A F ! ) ) ^ ",
"A L ~ ` L F A L ^ ) W J M u & & 0 g S S S G ~ ~ I Z A L ) ) ) ^ ",
"B L ~ ^ L Z B L ) ' ) W S i = = 8 l P R L P ) ~ I S S L ) ) Y L ",
"A L ~ ) U L S L Q ' ) Q A r < & 0 v E ! F G ) ~ L S A J ^ ) J M ",
"A I Q ' ` Q F L Q ` W F M a < < 8 l E ) L J ) Q L A A G ) ^ J S ",
"S F ) ` ` E F I ) ~ I B M i 3 < 0 l I U F J ^ ) I A S L ) ~ L S ",
"F G ) ) Q F F G ) ! L A l i : < 0 l B F S U ~ ^ G A A L ~ ) L S ",
"A I ) ! I F A U ! ) G m x a < < 8 g b A S U ) ) R L Z I ^ ) I A ",
"B I ) ) I A S U ) ) U A b a : ; 8 j l B A L ) ' ' Q F I ) ) U S ",
"b A U U A x M S U U A b h 9 $ $ 4 i d b M A I E Q I A A J U A m ",
"a d d d d a a a d d a u 0 3 o . = 2 0 a d a d x d d a a d z a a ",
"r r r r r r r r r r r r 6 > .   o ; 5 9 r r 9 r r r r r r r r r "
};
