/* XPM */
static char *_24b03d5ca534c978097c17c9e576600K2PsyHpy8BefYeO8[] = {
/* columns rows colors chars-per-pixel */
"32 32 127 2 ",
"   c #070707",
".  c #080606",
"X  c #060806",
"o  c #0A0A06",
"O  c #060709",
"+  c #090709",
"@  c #070809",
"#  c #0B0A0A",
"$  c #120D0C",
"%  c #14110E",
"&  c #18110F",
"*  c #160E11",
"=  c #180F12",
"-  c #161311",
";  c #1B1513",
":  c #1D1915",
">  c #1F1E19",
",  c #221A16",
"<  c #231D19",
"1  c #291E1B",
"2  c #25211C",
"3  c #2B221D",
"4  c #30241F",
"5  c #31281F",
"6  c #272422",
"7  c #2D2321",
"8  c #282520",
"9  c #282421",
"0  c #292522",
"q  c #2A2722",
"w  c #2A2623",
"e  c #2B2623",
"r  c #2C2421",
"t  c #2F2420",
"y  c #2E2520",
"u  c #2E2721",
"i  c #2B2622",
"p  c #2B2823",
"a  c #2D2920",
"s  c #2E2A21",
"d  c #2D2822",
"f  c #2F2822",
"g  c #2E2923",
"h  c #2C2924",
"j  c #2D2A25",
"k  c #2E2B24",
"l  c #2D2926",
"z  c #2E2B26",
"x  c #2F2C25",
"c  c #2F2C27",
"v  c #2E2924",
"b  c #312320",
"n  c #302521",
"m  c #322421",
"M  c #312620",
"N  c #302720",
"B  c #322721",
"V  c #332522",
"C  c #312622",
"Z  c #302722",
"A  c #322723",
"S  c #312725",
"D  c #302722",
"F  c #312823",
"G  c #302923",
"H  c #332822",
"J  c #322922",
"K  c #332A23",
"L  c #342923",
"P  c #302C23",
"I  c #352C23",
"U  c #302825",
"Y  c #322924",
"T  c #312A24",
"R  c #302B25",
"E  c #332A25",
"W  c #322826",
"Q  c #342925",
"!  c #342B24",
"~  c #342B26",
"^  c #322E25",
"/  c #312C26",
"(  c #302D26",
")  c #332C26",
"_  c #322D27",
"`  c #332F26",
"'  c #352C27",
"]  c #342D27",
"[  c #372C26",
"{  c #362D26",
"}  c #372E27",
"|  c #342B24",
" . c #382F26",
".. c #332E28",
"X. c #332E2A",
"o. c #342C29",
"O. c #342F29",
"+. c #372E29",
"@. c #342F2B",
"#. c #362E2B",
"$. c #372F2C",
"%. c #342E29",
"&. c #392E28",
"*. c #382F2A",
"=. c #382F28",
"-. c #373028",
";. c #35302A",
":. c #36322C",
">. c #393029",
",. c #393228",
"<. c #39302B",
"1. c #3B302A",
"2. c #3E342B",
"3. c #3B302C",
"4. c #3D322C",
"5. c #3E332D",
"6. c #3F362D",
"7. c #3F342E",
"8. c #3E352E",
"9. c #3F362F",
"0. c #3D342C",
"q. c #3F3430",
"w. c #3B3530",
"e. c #40362D",
"r. c #40352F",
"t. c #40372E",
"y. c #413630",
/* pixels */
". . @ X X $ # - ; - % $ % % ; - : & % % % % - - % # # . @ X . X ",
"# . . o - > 2 p p g x x c x x ( k k k k x _ z p 2 2 < % .   # X ",
"    . - w @.z _ _ _ :.:._ 5 g 5 k ^ ^ ^ ' :.@./ g *.@.< $     X ",
"  . - 2 _ ' 3 7 I ' ' Q G ' I I ,.,.-.P H ' [ Q r G H G < #   X ",
"  : z G 3 3 3 3 7 C C 3 C 7.e.6.6.2. .4 3 V C 3 4 1 4 V G w # # ",
". < @.C 3 3 < < < 3 1 1 3 ' *.G G _ G 3 1 3 3 2 , < 4 1 Q @.# X ",
"# < C 3 3 3 ; % % % $ $ $ $ # # $ $ $ $ $ $ # $ # 2 1 4 4 C & X ",
": < 3 1 3 r - . @ O X @ X . X @ . X X X X X @ O @ 6 < 3 1 < 2 ; ",
"3 z C C 4 _ : X X . X . X . @ . O . @ .     O . o p 5 ' 5 5 g : ",
"< / *.2.*.@.; . . X . @ O . . X . X . X   X X . # 2 ' e.,.' g : ",
"& ; , 1 ; : .   X O O X . X @   O X . O @ . X X X % & 1 , , & % ",
"$ , 1 C 1 : # . . . X . @ . .   . X X . @ . O . X $ < 3 3 3 - & ",
"$ , V q./ :   O @ .   @ . .     X     @ . @ . O . o 3 *.,.7 & $ ",
"* , / 7.V :   # . X . @ X O X X       . X . X . # $ <  .&.3 % - ",
"$ ; V y.Q : . . O X     .   @ O @   @ . . @     . . 2  .2.1 % $ ",
"* : C e.G : . . X .     X   . . .   X . . @   . . $ 3 I 2.1 ; $ ",
"$ ; 5 6.w ; X .     . . @ .     . . @ . .   @ O O # < -.6.2 & $ ",
"; , P e.g ; .         #     @ . O X X O X X . . O o < ' 6.3 ; $ ",
"= ; 5 6.r : . .   @           @ X . . O . O   X @ # < -.e.1 & $ ",
"$ , G 2.r ; . .   .     @ .       X . X . @   . @ # < ' e.1 ; $ ",
"* , m e.r : o @ @ O X . @     @   @ . X   @ O X # # < ' 7.3 ; $ ",
"* , C 2.w : . . . .   X .     . . . X O . . . . @ o < ' 7.1 ; $ ",
"$ ; 5 2.3 ; . X X . @ . @       O X   . O O X @   # < ' 2.1 = $ ",
"* , 5 2.w ;       X O .         X . @ . X . X .   o , Q 2.1 ; $ ",
"$ , Q y.g : .         . # # @ +   # # o X X o X   # < @.2.3 & $ ",
"& ; r 7.g ;   + @ @ @ + # + + + . . # # # # @ O   # < *. .1 ; * ",
"$ & m y.V ; . + # $ # # # # # # # # # # # # X X   # < ,.2.1 & $ ",
"& , C 7.r : + # # $ $ # # # $ # $ - % % # # % # # % < Q  .3 ; $ ",
"& : 2 3 < : $ + $ - - - - = : ; % ; : ; - % % % o % , 3 < , , % ",
"X._ _ :.@.<.< ; ; ; ; ; ; ; : : : : ; ; : : - % : p :.:.*.' ' / ",
":.:.;.:.:.:.9 < l l l 6 6 w l l X.l 6 2 p j p 2 < x :.:.:.^ :._ ",
"2 2 > 2 > 2 < < < 2 6 < < 6 2 6 < 2 2 < 2 2 2 < > > 2 > < 2 2 2 "
};
