/* XPM */
static char *_652201969774[] = {
/* columns rows colors chars-per-pixel */
"32 32 19 1 ",
"  c #484848484848",
". c #494949494949",
"X c gray30",
"o c gray32",
"O c gray33",
"+ c #5B5B5B5B5B5B",
"@ c gray36",
"# c gray38",
"$ c #646464646464",
"% c gray42",
"& c #6C6C6C6C6C6C",
"* c #727272727272",
"= c #777777777777",
"- c gray48",
"; c gray49",
": c #818181818181",
"> c gray52",
", c gray54",
"< c #8B8B8B8B8B8B",
/* pixels */
"+**&@***$@o#***@%***&o@@***#$**%",
"*>==%=*-*%O@-;;&*--=&X%%-=-&*--,",
"*=>;;-#;:;OX=;:;:;;%$o*:;%&:;,*>",
"%*$=>#=:&%O$;:;::$*:=X%$:;#-:$$;",
"@$-:**--%#O$*+=--=&&*o##--=%>=%#",
"*-:#*>=-%%O$*+*-==*%*X%$---:#-->",
"*-:=-=>-#-o%;;;:*$::=X*%&,=;--->",
"&=;;=*-=>-o$:;#;;;;:=X*:;**-;--;",
"@$&:%##&&-O$;;=-;&=;*o*&=##$:*$$",
"&*$-*=-$&:o@&&&&&@#&$X&-$**=-$%:",
"XoooXooooX...........X.oOooooooo",
"#%$%%%&%%$.*;%:*%:**:X+&&%%%&$$&",
"*=$:*&::-=.*;o+=:#O%:X#;:-=&:$%,",
"*-;-&&:;=&.&+&;%*&;o&o+-:;*%--->",
"*-;#=-%;%@.;#&:OO&:O>oO$:&*:#*->",
"%=:;-=&;-*.$:&O&;o&=;X@;:&&;:-=;",
"+%:;--:;-* %:&+&:o&=;.@:;;-;:;*$",
"*-:;==:#** -#&;OO&:o>o@:#===;-->",
"*-;:@+:-=* %+%;%=&:o&o@:--&o;-->",
"*--;*&:;-=.*;OO=:@o%:o@;:;=%:==>",
"##o%%%&&%#.*;%:=%:=&:X+%&%%&&O+*",
"oooXXoooXX...X....X..X.oooXoooXo",
"&*$-=*-&&;o@&&&&&%&@@X*-$*==-%%;",
"@$&:&##&&-O$;-;;;=-&%X&*=$#$;&%$",
"&=:;=*-*>-o%:;;;:$*:=X*:;**=;--;",
"*-;---,-#-O$::*$;;:;=o*&&,=;--->",
"*;;#*>=-%%O$*%==--#%*X$$---:#=->",
"@$-:**=-&#O$*%*---@%*X$$--=&:=&$",
"&&#=:#=:*$O%:;#;;;::*o$$:;#-:$$;",
"*=,;:-#;;;O##;;;::;;+.*::&&;;,=>",
"*>==%-*-*%O$=-;-%-;-%X$%-==&&--,",
"@**%+***$@o@***&+&**%o#@**=$$**&"
};
