/* XPM */
static char *result[] = {
/* columns rows colors chars-per-pixel */
"24 31 36 1 ",
"  c #2E1E22",
". c #323234",
"X c #463D3C",
"o c #534721",
"O c #5C572C",
"+ c #444444",
"@ c gray31",
"# c #545456",
"$ c #695857",
"% c #6D6D6E",
"& c gray46",
"* c gray50",
"= c #964F00",
"- c #857E30",
"; c #9B6545",
": c #9D704C",
"> c #887976",
", c #C27256",
"< c #B1A734",
"1 c #D7906E",
"2 c #D39472",
"3 c #DDA37E",
"4 c #CBC266",
"5 c #979797",
"6 c #B1A29D",
"7 c #E1A883",
"8 c #EEBE93",
"9 c #F0C79B",
"0 c #EDD1A0",
"q c #E3DDA3",
"w c #F6D2A3",
"e c #FFE1AF",
"r c gray85",
"t c #D9D9DD",
"y c white",
"u c None",
/* pixels */
"uuuuuuuuuuuuuuuuuuuuuuuu",
"uuuuuuuuuXXXXXXXXXuuuuuu",
"uuuuuuuXX$$>>>>>$$XXuuuu",
"uuuuuuX$>>>$$$$>>>>$Xuuu",
"uuuuuX$>$$$>>>>>>66>$Xuu",
"uuuuX$>$>6>>>>66>$>6>$Xu",
"uuuuX>$>6>$>>$$>6>$>>$Xu",
"uuuX$>$>>$>66>>$>>$>>$Xu",
"uuuX$>$>$>>>>eeeee8$$ouu",
"uuuX$$>>$>>$$eeeeee81ouu",
"uuuX$$>>$>$>>>eeeee88ouu",
"uuuX$>>$>$$>>>eeeeee8ouu",
"uuuX$>>$>oo>>eeeeeee8ouu",
"uuuX$$>$oe8o>eeoo0ee8ouu",
"uuuX$$>$oe:8>eer o0e3ouu",
"uuuX$$$$o8:e>eey te9,ouu",
"uuuuX$$$$o18eeee==w2;ouu",
"uuuuuX$$$$118eeeew71ouuu",
"uuuuuuX$X::1188811:ouuuu",
"uuuuuuuX....ooooooouuuuu",
"uuuuuu..+###%%%%#<-Ouuuu",
"uuuu..++%qq###%%4<-Ouuuu",
"uuu.++#%OOO4O<4q4-OOuuuu",
"uu.+##%-4q<OOOO--<-Ouuuu",
"u.++#%*55<4O-----OOuuuuu",
"u.+#%%&55*@4qq-q4<Ouuuuu",
"u.##%%@&*@O444O44<Ouuuuu",
"u.+#%#.@@*O<<O-<*@@uuuuu",
"uu.+#...@**OO@-**55@uuuu",
"uuu.+..uu@@@uu@&555@uuuu",
"uuuu.uuuuuuuuuu@@@@uuuuu"
};
