/* XPM */
static char *result[] = {
/* columns rows colors chars-per-pixel */
"21 32 36 1 ",
"  c #2E1E22",
". c #323234",
"X c #463D3C",
"o c #534721",
"O c #5C572C",
"+ c #444444",
"@ c gray31",
"# c #545456",
"$ c #695857",
"% c #6D6D6E",
"& c gray46",
"* c gray50",
"= c #964F00",
"- c #857E30",
"; c #9B6545",
": c #9D704C",
"> c #887976",
", c #C27256",
"< c #B1A734",
"1 c #D7906E",
"2 c #D39472",
"3 c #DDA37E",
"4 c #CBC266",
"5 c #979797",
"6 c #B1A29D",
"7 c #E1A883",
"8 c #EEBE93",
"9 c #F0C79B",
"0 c #EDD1A0",
"q c #E3DDA3",
"w c #F6D2A3",
"e c #FFE1AF",
"r c gray85",
"t c #D9D9DD",
"y c white",
"u c None",
/* pixels */
"uuuuuuuuuuuuuuuuuuuuu",
"uuuuuuuXXXXXXXXXuuuuu",
"uuuuuXX$$>>>>>$$XXuuu",
"uuuuX$>>>$$$$>>>>$Xuu",
"uuuX$>$$$>>>>>>66>$Xu",
"uuX$>$>6>>>>66>$>6>$u",
"uuX>$>6>$>>$$>6>$>>$u",
"uX$>$>>$>66>>$>>$>>$u",
"uX$>$>$>>>>eeeee8$$ou",
"uX$$>>$>>$$eeeeee81ou",
"uX$$>>$>$>>>eeeee88ou",
"uX$>>$>$$>>>eeeeee8ou",
"uX$>>$>oo>>eeeeeee8ou",
"uX$$>$oe8o>eeoo0ee8ou",
"uX$$>$oe:8>eer o0e3ou",
"uX$$$$o8:e>eey te9,ou",
"uuX$$$$o18eeee==w2;ou",
"uuuX$$$$118eeeew71ouu",
"uuuuX$X::1188811:ouuu",
"uuuuuX....ooooooouuuu",
"uuuuu.+#%%%%%%#<-Ouuu",
"uuuu.+#44<##%%4<-Ouuu",
"uuu.+#%OOOO<4q4-OOuuu",
"uuu.+%%-q4@OO--<-Ouuu",
"uuu.#%%<44@----OOuuuu",
"uu.+#%%*55@q-q4<Ouuuu",
"uu.+%%%&55@4O44<Ouuuu",
"uu.+%%.@@@<<OO4-Ouuuu",
"uu.+%%..@-OO-OOOuuuuu",
"uu.+%#..@&*5*@uuuuuuu",
"uuu.%#.u@&*55@uuuuuuu",
"uuuu..uuu@@@@uuuuuuuu"
};
