/* XPM */
static char *result[] = {
/* columns rows colors chars-per-pixel */
"22 31 37 1 ",
"  c #2E1E22",
". c #323234",
"X c #463D3C",
"o c #534721",
"O c #5C572C",
"+ c #444444",
"@ c gray31",
"# c #545456",
"$ c #565657",
"% c #695857",
"& c #6D6D6E",
"* c gray46",
"= c gray50",
"- c #964F00",
"; c #857E30",
": c #9B6545",
"> c #9D704C",
", c #887976",
"< c #C27256",
"1 c #B1A734",
"2 c #D7906E",
"3 c #D39472",
"4 c #DDA37E",
"5 c #CBC266",
"6 c #979797",
"7 c #B1A29D",
"8 c #E1A883",
"9 c #EEBE93",
"0 c #F0C79B",
"q c #EDD1A0",
"w c #E3DDA3",
"e c #F6D2A3",
"r c #FFE1AF",
"t c gray85",
"y c #D9D9DD",
"u c white",
"i c None",
/* pixels */
"iiiiiiiiiiiiiiiiiiiiii",
"iiiiiiiXXXXXXXXXiiiiii",
"iiiiiXX%%,,,,,%%XXiiii",
"iiiiX%,,,%%%%,,,,%Xiii",
"iiiX%,%%%,,,,,,77,%Xii",
"iiX%,%,7,,,,77,%,7,%ii",
"iiX,%,7,%,,%%,7,%,,%ii",
"iX%,%,,%,77,,%,,%,,%ii",
"iX%,%,%,,,,rrrrr9%%oii",
"iX%%,,%,,%%rrrrrr92oii",
"iX%%,,%,%,,,rrrrr99oii",
"iX%,,%,%%,,,rrrrrr9oii",
"iX%,,%,oo,,rrrrrrr9oii",
"iX%%,%or9o,rrooqrr9oii",
"iX%%,%or>9,rrt oqr4oii",
"iX%%%%o9>r,rru yr0<oii",
"iiX%%%%o29rrrr--e3:oii",
"iiiX%%%%229rrrre82oiii",
"iiiiX%X>>2299922>oiiii",
"iiiiiX....oooooooiiiii",
"iiiii.+#&&&&&&#1;Oiiii",
"iiii.+#&&w;#&&51;Oiiii",
"iii.+#&&1OO15w5;OOiiii",
"ii.++#&&O5wOOO;1;Oiiii",
"ii.+##&&15566@;OOiiiii",
"i.++#&&$;1=66@51Oiiiii",
"i.+##&&$O@*=*@51Oiiiii",
"i.+##&&$;O@@@O5;O@iiii",
"ii.+#&&*66=;OOOO=@iiii",
"iii..#&=666@ii@@@iiiii",
"iiiii..@@@@iiiiiiiiiii"
};
