/* XPM */
static char *_87290739faf477e99470d049eafb248dpwJXsrAltEK0PX7[] = {
/* columns rows colors chars-per-pixel */
"32 32 150 2 ",
"   c None",
".  c black",
"X  c #2B1106",
"o  c #361508",
"O  c #3D1809",
"+  c #361306",
"@  c #2C211C",
"#  c #252525",
"$  c #2C2827",
"%  c #2C2C2C",
"&  c #2C2522",
"*  c #353535",
"=  c #3C3C3C",
"-  c #431909",
";  c #4C1C0A",
":  c #511D09",
">  c #54210C",
",  c #5B230D",
"<  c #64250D",
"1  c #66280F",
"2  c #6B290E",
"3  c #7A2E10",
"4  c #7D3011",
"5  c #56362A",
"6  c #594239",
"7  c #555656",
"8  c #595350",
"9  c gray35",
"0  c #766A66",
"q  c #7B726F",
"w  c #96350F",
"e  c #8D3714",
"r  c #833211",
"t  c #973710",
"y  c #9A3710",
"u  c #9E3A13",
"i  c #A23E15",
"p  c #A64016",
"a  c #A94017",
"s  c #A64118",
"d  c #A94219",
"f  c #B74315",
"g  c #B94214",
"h  c #BB4718",
"j  c #854126",
"k  c #AF5632",
"l  c #BF5C35",
"z  c #B8613E",
"x  c #C64817",
"c  c #CD4A16",
"v  c #C74918",
"b  c #CB4B18",
"n  c #C34715",
"m  c #D14D19",
"M  c #DA4F19",
"N  c #E34A0F",
"B  c #E44E14",
"V  c #E55016",
"C  c #ED5317",
"Z  c #E55118",
"A  c #EE5518",
"S  c #CD582A",
"D  c #D76334",
"F  c #DC683A",
"G  c #ED602A",
"H  c #E96835",
"J  c #F66F3A",
"K  c #F7723D",
"L  c #F8723E",
"P  c #A1664E",
"I  c #807672",
"U  c #A67D6B",
"Y  c #C26A47",
"T  c #C36B48",
"R  c #D8744C",
"E  c #C67250",
"W  c #EC7344",
"Q  c #E5774D",
"!  c #EE7748",
"~  c #EE794C",
"^  c #FA7846",
"/  c #F17949",
"(  c #FF7E4C",
")  c #F27D50",
"_  c #FF804F",
"`  c #EC8055",
"'  c #EC845C",
"]  c #F08155",
"[  c #FE8252",
"{  c #F2855A",
"}  c #F9875B",
"|  c #FE8A5D",
" . c #C08167",
".. c #D28768",
"X. c #DF9172",
"o. c #EE8F6A",
"O. c #ED8C66",
"+. c #F38C64",
"@. c #FF8D61",
"#. c #F5936C",
"$. c #FD936B",
"%. c #E09373",
"&. c #EB9472",
"*. c #F69771",
"=. c #F79974",
"-. c #F79E7A",
";. c #F99F7B",
":. c #F99A74",
">. c #F7A17E",
",. c #FDA17D",
"<. c #A69A96",
"1. c #9FA0A0",
"2. c #A3A3A4",
"3. c #BAA7A1",
"4. c #B6AAA5",
"5. c #EAA082",
"6. c #FFA987",
"7. c #FFAC8C",
"8. c #F4AD91",
"9. c #F4B197",
"0. c #F5B59B",
"q. c #FDB99E",
"w. c #DEBCAE",
"e. c #E8BFAE",
"r. c #FFBEA4",
"t. c #FFC0A6",
"y. c #F6C1AD",
"u. c #FEC3AA",
"i. c #E7C0B0",
"p. c #EEC2B0",
"a. c #F6C4B0",
"s. c #FFC9B4",
"d. c #FFCFBC",
"f. c #F5CCBD",
"g. c #EAD4CC",
"h. c #FED4C3",
"j. c #FFD7C8",
"k. c #FFDFD2",
"l. c #FFE1D5",
"z. c #F5E1D8",
"x. c #FFE4DA",
"c. c #FFE9DF",
"v. c #FFEBE3",
"b. c #F4E8E3",
"n. c #FFF2ED",
"m. c #F1F1F1",
"M. c #FFF6F2",
"N. c #FFF8F5",
"B. c #F5F7F8",
"V. c #FFFFFE",
/* pixels */
"                                                                ",
"                                                                ",
"                      . . . . . . . . . .                       ",
"                      # # # # # # # # # #                       ",
"              . . . . 1.m.m.m.m.m.m.m.m.m.7 . . .               ",
"              $ % & @ 4.n.V.V.V.V.V.V.N.n.0 @ $ %               ",
"          . . 2.B.f.9.r.r.c.V.V.V.V.V.h.r.q.0.z.B.7 .           ",
"          % * 3.x.u.7.u.s.l.n.N.V.M.n.j.s.q.7.h.x.q *           ",
"      . . 2.V.7._ [ ( h.V.h.r.v.V.h.r.v.V.7.( [ [ h.V.7 .       ",
"      * = 3.l.,.( | @.u.l.r.7.l.V.s.6.d.l.7.| } ( r.l.q = $     ",
"  . . 2.V.7._ _ ( 6.r.:._ _ ( h.V.6.( [ [ 6.r.$._ [ [ h.V.9 .   ",
"  . . <.v.;.K ^ [ #.>.[ L $.,.k.V.u.;.[ K $.>.| _ ^ K u.v.8 .   ",
"  . . U u.! B J ( G B B B y.V.V.V.V.V.O.B B V J [ G B =.u.6 .   ",
"  . . P >.] W } $.) W ) O.h.V.V.V.V.V.9.' ~ W } $./ W +.>.5 .   ",
"  . . u A :.t.r.t.r.q.v.V.V.V.V.V.V.V.V.V.h.q.r.r.r.t./ C : .   ",
"    . 2 y E %.%.%.8.r.y.y.w.w.b.V.g.w.p.a.r.r.5.X.X.X.k w - .   ",
"      . . 2 d i s X.t.! B f u w.V. .u c B *.u.P a a p o .       ",
"        . ; 1 e s R #.{ ! S f i.V...g F / +.#.S p 4 1 X .       ",
"          . . 2 s b V :.u.! B a.V.o.N =.u.! V h s O .           ",
"            . ; < i v Q #.H V 9.x.' B ~ #.D v r , X .           ",
"              . . 2 d b C Z Z *.r.! V Z V h i o .               ",
"                . - , i b M Z *.r.! V m v 4 , X .               ",
"                  . . 2 d b Z *.t.! B h p o .                   ",
"                    . - > u v &.r.R n 3 > X .                   ",
"                      . . 2 a %.u.Y p o .                       ",
"                          O ; z { j ; X                         ",
"                          . . w A ; .                           ",
"                              : < +                             ",
"                              . .                               ",
"                                                                ",
"                                                                ",
"                                                                "
};
