/* XPM */
static char *_d399e13eabf4d3ae06df7573e507111lZg7ErUTRnmsy9ph[] = {
/* columns rows colors chars-per-pixel */
"32 32 180 2 ",
"   c None",
".  c black",
"X  c #010101",
"o  c #020202",
"O  c gray1",
"+  c #040404",
"@  c gray2",
"#  c #060606",
"$  c #070707",
"%  c gray3",
"&  c gray4",
"*  c #0B0B0B",
"=  c #0C0C0C",
"-  c #111111",
";  c #191919",
":  c #1B1B1B",
">  c gray11",
",  c #202020",
"<  c gray15",
"1  c gray16",
"2  c #2C2C2C",
"3  c #2D2D2D",
"4  c #313131",
"5  c #323232",
"6  c gray20",
"7  c #353535",
"8  c gray21",
"9  c gray22",
"0  c #393939",
"q  c #3A3A3A",
"w  c gray23",
"e  c gray25",
"r  c gray26",
"t  c #444444",
"y  c gray27",
"u  c #464646",
"i  c gray28",
"p  c gray29",
"a  c #4B4B4B",
"s  c gray30",
"d  c gray31",
"f  c #505050",
"g  c #515151",
"h  c gray32",
"j  c #535353",
"k  c gray33",
"l  c #555555",
"z  c #585858",
"x  c #5B5B5B",
"c  c #5D5D5D",
"v  c gray37",
"b  c #606060",
"n  c gray38",
"m  c gray39",
"M  c #646464",
"N  c #656565",
"B  c gray40",
"V  c #676767",
"C  c #686868",
"Z  c DimGray",
"A  c #6A6A6A",
"S  c gray42",
"D  c #6C6C6C",
"F  c #6D6D6D",
"G  c gray43",
"H  c #6F6F6F",
"J  c #727272",
"K  c gray45",
"L  c gray46",
"P  c #767676",
"I  c gray47",
"U  c #797979",
"Y  c gray48",
"T  c #7B7B7B",
"R  c gray49",
"E  c #7E7E7E",
"W  c gray50",
"Q  c #808080",
"!  c #818181",
"~  c gray51",
"^  c #838383",
"/  c #848484",
"(  c gray52",
")  c #868686",
"_  c gray53",
"`  c #888888",
"'  c #898989",
"]  c gray54",
"[  c #8B8B8B",
"{  c gray55",
"}  c #8D8D8D",
"|  c #909090",
" . c gray57",
".. c #929292",
"X. c #939393",
"o. c gray58",
"O. c #959595",
"+. c gray59",
"@. c #9A9A9A",
"#. c #9D9D9D",
"$. c gray62",
"%. c #9F9F9F",
"&. c gray63",
"*. c #A2A2A2",
"=. c gray64",
"-. c #A4A4A4",
";. c #A5A5A5",
":. c gray65",
">. c gray66",
",. c #A9A9A9",
"<. c #ACACAC",
"1. c gray68",
"2. c #AEAEAE",
"3. c #AFAFAF",
"4. c gray69",
"5. c #B1B1B1",
"6. c #B2B2B2",
"7. c gray70",
"8. c #B4B4B4",
"9. c gray71",
"0. c #B6B6B6",
"q. c #B7B7B7",
"w. c gray72",
"e. c #B9B9B9",
"r. c gray73",
"t. c #BBBBBB",
"y. c #BCBCBC",
"u. c gray",
"i. c #C0C0C0",
"p. c #C1C1C1",
"a. c #C3C3C3",
"s. c gray77",
"d. c #C5C5C5",
"f. c gray78",
"g. c #C8C8C8",
"h. c gray79",
"j. c #CACACA",
"k. c #CBCBCB",
"l. c gray80",
"z. c #CDCDCD",
"x. c #CECECE",
"c. c gray81",
"v. c #D0D0D0",
"b. c gray82",
"n. c #D2D2D2",
"m. c LightGray",
"M. c gray83",
"N. c gray84",
"B. c #D7D7D7",
"V. c #D8D8D8",
"C. c gray85",
"Z. c #DADADA",
"A. c gray86",
"S. c gainsboro",
"D. c #DDDDDD",
"F. c gray87",
"G. c #DFDFDF",
"H. c #E1E1E1",
"J. c gray89",
"K. c gray90",
"L. c #E6E6E6",
"P. c gray91",
"I. c #EAEAEA",
"U. c gray92",
"Y. c #ECECEC",
"T. c gray93",
"R. c #EEEEEE",
"E. c #EFEFEF",
"W. c #F1F1F1",
"Q. c #F3F3F3",
"!. c #F4F4F4",
"~. c gray96",
"^. c #F6F6F6",
"/. c gray97",
"(. c #F9F9F9",
"). c gray98",
"_. c gray99",
"`. c #FDFDFD",
"'. c #FEFEFE",
"]. c white",
/* pixels */
"                                                                ",
"                      . . . . . . . . . .                       ",
"                      . . . . . . . . . . .                     ",
"              . . . % _ +.+.+.+.+.+.+.+.+.B . . .               ",
"              . . . + M.].].].].].].].].].| . . . .             ",
"          . : _ [ I I C.U.(.].].].].].W.U.w.P E { P .           ",
"          . : !.].K.H.C.M.!.].].].].].U.M.F.F.R.].w.. .         ",
"      . < Q { b.M.k.s.K.R.R.U.(.].W.U.R.R.C.s.z.M.p.Q P +       ",
"      . 1 ].].w.4.4.8.!.].H.C.!.].U.C.R.].H.4.4.4.k.].z.. .     ",
"    4 I [ C.M.8.8.s.s.C.F.z.s.R.].F.s.M.C.b.s.u.4.u.C.k.E G     ",
"  . e ].!.8.8.8.8.C.F.w.4.4.1.K.].z.1.4.4.s.H.z.8.8.4.s.].H.= . ",
"  . w R.H.*.*.4.8.8.8.*.$.k.M.W.].K.b.w.*.>.8.8.8.1.$.4.R.z.% . ",
"  . 7 C.k.Q _ 1.4._ Q Q Q H.].].].].].u.E Q Q | 8.:.E +.C.u.% . ",
"  . 2 8.8.:.>.u.p.:.:.4.8.R.].].].].].C.4.1.:.4.s.w.:.>.w.$.% . ",
"  . , _ +.C.F.F.F.C.F.].].].].].].].].].].W.C.C.F.C.H.k.[ K + . ",
"  . > k B 1.4.4.4.M.C.b.b.z.k.R.].H.s.z.b.C.C.k.4.4.4.$.k s % . ",
"      . - n B B G z.C.| Q G B z.].*.n K E >.F.4.B B Z h . .     ",
"      . - i a B G 4.u.:.$.I G b.].>.Z [ *.1.p.*.B x i w . .     ",
"          . = n Z Q _ z.C.@.Q C.].8.E 4.F.8.Q E Z a . .         ",
"          . % a s P E 8.p.+.Q b.!.4.E :.s.*.E Z a w . .         ",
"              . % x Z Q _ Q _ u.F.:.Q _ _ I Z e . .             ",
"              . % i h P E Q Q u.F.:.Q Q E Z h 7 . .             ",
"                  . . k Z E _ u.C.:.Q P Z w . .                 ",
"                  . . i h K E u.F.*.E B h 4 . .                 ",
"                      + + s Z 8.F.@.Z 7 + .                     ",
"                      . + e k :.z.Q h 2 .                       ",
"                          + . v { w + .                         ",
"                          . . h P 4 .                           ",
"                              + +                               ",
"                              . .                               ",
"                                                                ",
"                                                                "
};
