/* XPM */
static char *d390490aad0a411cf4aa885b1ef75827GNmJrPwHTLrTJCFV[] = {
/* columns rows colors chars-per-pixel */
"32 32 154 2 ",
"   c None",
".  c #000000",
"X  c #040608",
"o  c #05090C",
"O  c #0B0C0C",
"+  c #050B10",
"@  c #0B0F12",
"#  c #121212",
"$  c #0B2133",
"%  c #0B263E",
"&  c #0F2A42",
"*  c #0B2D4C",
"=  c #102D46",
"-  c #112F4A",
";  c #11314C",
":  c #0F3353",
">  c #123452",
",  c #143857",
"<  c #143A5B",
"1  c #0F3D65",
"2  c #1B4F7D",
"3  c #1B4B76",
"4  c #676767",
"5  c #737474",
"6  c #7C7C7C",
"7  c #134E81",
"8  c #194F80",
"9  c #1D5383",
"0  c #1F5B90",
"q  c #165B98",
"w  c #275B87",
"e  c #205A8D",
"r  c #226096",
"t  c #2E6290",
"y  c #1E64A3",
"u  c #1F6EB3",
"i  c #2066A4",
"p  c #2469A7",
"a  c #266DAB",
"s  c #286FAD",
"d  c #2476BE",
"f  c #527796",
"g  c #417FB5",
"h  c #1C75C3",
"j  c #1A7FD7",
"k  c #187ED9",
"l  c #2377C1",
"z  c #2278C4",
"x  c #227DCD",
"c  c #227FD2",
"v  c #668096",
"b  c #1E82D9",
"n  c #3783C6",
"m  c #3B88CA",
"M  c #2083D9",
"N  c #2588DD",
"B  c #2C8BDD",
"V  c #3689D1",
"C  c #318EDF",
"Z  c #2189E5",
"A  c #3B95E3",
"S  c #3F99E5",
"D  c #3692E1",
"F  c #4687C0",
"G  c #498DC7",
"H  c #4C8FC9",
"J  c #4995D7",
"K  c #4496DD",
"L  c #5698D0",
"P  c #719DC5",
"I  c #72A5D1",
"U  c #71A9DA",
"Y  c #4097E3",
"T  c #459BE6",
"R  c #489FE8",
"E  c #479CE5",
"W  c #4DA3EB",
"Q  c #51A5EB",
"!  c #57A9EC",
"~  c #5CABEE",
"^  c #59A4E6",
"/  c #5DADF1",
"(  c #6EAEE4",
")  c #65AFEE",
"_  c #6DAFE9",
"`  c #66B0EE",
"'  c #6BB2EE",
"]  c #74B2E7",
"[  c #77B6EC",
"{  c #79B7EC",
"}  c #72B8EF",
"|  c #7BB2E1",
" . c #63AFF0",
".. c #66B1F1",
"X. c #6CB5F3",
"o. c #74BAF5",
"O. c #7BBCF2",
"+. c #77BDF8",
"@. c #7ABFF9",
"#. c #7EC2FA",
"$. c #898989",
"%. c gray59",
"&. c gray68",
"*. c #B3B3B3",
"=. c #88B0D2",
"-. c #9ABEDB",
";. c #A6BED2",
":. c #87BAE5",
">. c #84BCE9",
",. c #80BFF4",
"<. c #9EC1DD",
"1. c #BFC2C4",
"2. c #A5C1DB",
"3. c #99C0E1",
"4. c #8DC4F3",
"5. c #81C4FB",
"6. c #87C8FF",
"7. c #8ECCFF",
"8. c #9BCCF5",
"9. c #91CEFF",
"0. c #96C9F4",
"q. c #94D0FF",
"w. c #B9CFE3",
"e. c #BAD5ED",
"r. c #A4CEF2",
"t. c #A2D5FF",
"y. c #A8D7FF",
"u. c #ABD9FF",
"i. c #A4D1F5",
"p. c #BAD8F3",
"a. c #B6DEFF",
"s. c #BADFFF",
"d. c #B4E0FF",
"f. c #BFE3FF",
"g. c #C4C4C4",
"h. c #C9CBCD",
"j. c #D0CECD",
"k. c #D3D3D4",
"l. c #D8D7D6",
"z. c #DBDBDB",
"x. c #C1DCF4",
"c. c #D3E1ED",
"v. c #C5E4FD",
"b. c #CCE6FB",
"n. c #CDE8FF",
"m. c #D4E7F8",
"M. c #D2E9FC",
"N. c #DDEFFD",
"B. c #DEF0FF",
"V. c #E1E1E1",
"C. c #E4F3FF",
"Z. c #EAF5FE",
"A. c #F0F7FD",
"S. c #FFFFFF",
/* pixels */
"                                                                ",
"                                                                ",
"                    . . . . . . . . . .                         ",
"                    O O O O # O # O O O                         ",
"            . . . X &.z.z.l.l.l.l.l.l.z.4 . . .                 ",
"            X X X o g.S.S.S.S.S.S.S.S.S.5 . X X X               ",
"        . O *.l.=.I 0.t.C.S.S.S.S.S.v.t.>.I ;.l.5 .             ",
"        X O k.S.y.7.7.7.B.S.S.S.S.S.f.6.7.7.n.S.$.. X           ",
"    . O *.h.>.o.~ / v.Z.s.y.C.S.v.t.n.Z.8./ ..o.2.j.6 .         ",
"    X O l.S.' W W ! m.S.u.6.N.S.d.6.M.S.8.W W W i.S.$.. X       ",
". # &.g.>.O.! Q +.#.O.O.` ~ b.S.8./ ' O.#.#...Q ` O.-.g.6 .     ",
". # c.S.` W W Q 5.7.~ W Q W v.S.4.W W W o.9.X.W W W 8.S.%.. .   ",
". # -.y.S B W W T S C B r.M.A.S.N.b._ B D Y R Q S B ) d.v . .   ",
". @ | 6.B M W Q N b M M x.S.S.S.S.S.] j b b A Q D j Q 9.f . .   ",
". + m T ..X.+.+.X.' r.p.Z.S.S.S.S.S.m.p.4...o.#.o.X.! R w . .   ",
". o h N 5.9.9.7.9.9.C.S.S.S.S.S.S.S.S.S.v.6.7.9.7.q./ b 7 . .   ",
"    * > g H G G O.7.[ ( I P c.S.2.P U ( ,.7.( G G H t * %       ",
"    . X 0 a p a { 7.D j u y w.S.P y h j ) 9.L y p a < . .       ",
"        % = r a K W ~ ) V z e.S.U h E ` Q R n a 3 & $           ",
"        . . 0 s x M +.q.S b p.S.' b ` q.Q b l s , . .           ",
"            & ; i l E Q B M 4.v.^ j A Q V d 2 = $               ",
"            . . 9 s x j M M X.7.E M M M d s > . .               ",
"                & > i l c M X.9.E b x d 2 ; $                   ",
"                . . w s x b X.9.E M d s = .                     ",
"                  . = < y z ' 7.J h 9 > $ .                     ",
"                    . . 2 s ] q.H a & .                         ",
"                      . ; < F / t , $ .                         ",
"                        . . q Z * .                             ",
"                          . 1 7 & .                             ",
"                            . .                                 ",
"                              .                                 ",
"                                                                "
};
