/* XPM */
static char *result[] = {
/* columns rows colors chars-per-pixel */
"32 30 7 1 ",
"  c black",
". c #9D1818",
"X c #E62222",
"o c #FC5B5B",
"O c #FFA3A3",
"+ c white",
"@ c None",
/* pixels */
"@@@@@@@@@@@@@@@@@@@@@@@@@@@@@@@@",
"@@@@@@@@@@@@@@@@@@@@@@@@@@@@@@@@",
"@@@@@@@@@@@@@@@@@@@@@@@@@@@@@@@@",
"@@@@@@@@@@@          @@@@@@@@@@@",
"@@@@@@@@@@@          @@@@@@@@@@@",
"@@@@@@@    ++++++++++    @@@@@@@",
"@@@@@@@    ++++++++++    @@@@@@@",
"@@@@@  ++OOOO++++++OOOO++  @@@@@",
"@@@@@  ++OOOO++++++OOOO++  @@@@@",
"@@@  ++oooo++OO++OO++oooo++  @@@",
"@@@  ++oooo++OO++OO++oooo++  @@@",
"@  ++ooooOOoooo++ooooOOoooo++  @",
"@  ++ooooOOoooo++ooooOOoooo++  @",
"@  OOXXooXXXX++++++XXXXooXXOO  @",
"@  OOXXooXXXX++++++XXXXooXXOO  @",
"@  XXOOOOOO++++++++++OOOOOOXX  @",
"@  XXOOOOOO++++++++++OOOOOOXX  @",
"@@@  ....OOXX..++..XXOO....  @@@",
"@@@  ....OOXX..++..XXOO....  @@@",
"@@@@@  ..XXOOXX++XXOOXX..  @@@@@",
"@@@@@  ..XXOOXX++XXOOXX..  @@@@@",
"@@@@@@@  ..XXXXOOXXXX..  @@@@@@@",
"@@@@@@@  ..XXXXOOXXXX..  @@@@@@@",
"@@@@@@@@@  ..XXOOXX..  @@@@@@@@@",
"@@@@@@@@@  ..XXOOXX..  @@@@@@@@@",
"@@@@@@@@@@@  ..OO..  @@@@@@@@@@@",
"@@@@@@@@@@@  ..OO..  @@@@@@@@@@@",
"@@@@@@@@@@@@@  XX  @@@@@@@@@@@@@",
"@@@@@@@@@@@@@  XX  @@@@@@@@@@@@@",
"@@@@@@@@@@@@@@@  @@@@@@@@@@@@@@@"
};
