/* XPM */
static char *_382fb8130224be7b60f02c043361eb7ZuIRhjLqOPULLNRB[] = {
/* columns rows colors chars-per-pixel */
"27 32 34 1 ",
"  c None",
". c #2E1E22",
"X c #323234",
"o c #463D3C",
"O c #534721",
"+ c #5C572C",
"@ c #444444",
"# c gray31",
"$ c #545456",
"% c #695857",
"& c #6D6D6E",
"* c gray46",
"= c gray50",
"- c #964F00",
"; c #857E30",
": c #9D704C",
"> c #887976",
", c #B1A734",
"< c #D7906E",
"1 c #CBC266",
"2 c #979797",
"3 c #B1A29D",
"4 c #E0AF87",
"5 c #E6B289",
"6 c #EEBE93",
"7 c #EBC095",
"8 c #F0C79B",
"9 c #EDD1A0",
"0 c #E3DDA3",
"q c #F6D2A3",
"w c #FFE1AF",
"e c gray85",
"r c #D9D9DD",
"t c white",
/* pixels */
"                           ",
"         ooooooooo         ",
"       oo%%>>%>>%%oo       ",
"      o%>%>>>%>>>%>%o      ",
"     o%>>>>3>>>3>>>>%o     ",
"    o%>>3>>3>>>3>>3>>%o    ",
"    o%>>>3>>>%>>>3>>>%o    ",
"   o%>%>%%%>>%>>%%%>%>%o   ",
"   o%>>%66w%%%%%w66%>>%o   ",
"   o%>>66wwwwwwwww66>>%o   ",
"   o%%>6wwwwwwwwwww6>%%o   ",
"   oO%>6wwwwwwww7ww6>%Oo   ",
"   O<%<6wwwwwwq4qww6<%<O   ",
"   O<%<6OO9ww84q9OO6<%<O   ",
"    OO:6e.O97489O.e6:OO    ",
"     O:6t.r847wwr.t6:O     ",
"      O<6--48www--6<O      ",
"    +XXO<58wwwwww6<OXX+    ",
"   +,@@XO:<66666<:OX@@,+   ",
"  +,10@@@OOOOOOOOO@@@11,+  ",
"  +;110$$$$&,,,&$$$$11,;+  ",
"   +;;;;$$&01110&$$+;;+=#  ",
"  +;100+,11,;;;,11,++#==#  ",
"  +,122#++;;,1,;;+++XX##X  ",
" X$#=22#;;++;;;++;,;+X@$X  ",
" X$#*==#,0,;000;,10,;+X$@X ",
" X&&###;10+,101,++01;+X$$X ",
" X&&X@@+1+;+,1,+,;+0+XXX$X ",
"  X&XXX +===+++101;+X   X  ",
"   X     ###  *22=#        ",
"              *222#        ",
"                           "
};
